<svg width="50" height="38" fill="none" xmlns="http://www.w3.org/2000/svg"><g clip-path="url(#clip0)"><path fill-rule="evenodd" clip-rule="evenodd" d="M0 31.85V2.02C0 .905.906 0 2.023 0h14.938c1.504 0 2.482 1.58 1.81 2.924L3.833 32.754C2.878 34.66 0 33.981 0 31.85zm49.778 0V2.02c0-1.115-.906-2.02-2.024-2.02H32.817c-1.504 0-2.483 1.58-1.81 2.924l14.937 29.83c.955 1.906 3.834 1.228 3.834-.904zM25.9 35.155V5.326c0-2.132 2.878-2.81 3.833-.904l14.937 29.83c.673 1.343-.305 2.924-1.81 2.924H27.925a2.022 2.022 0 01-2.023-2.02zM23.877 5.326v29.83c0 1.115-.906 2.02-2.023 2.02H6.916c-1.504 0-2.482-1.58-1.81-2.924l14.938-29.83c.955-1.907 3.833-1.228 3.833.904z" fill="url(#paint0_linear)"/></g><defs><linearGradient id="paint0_linear" x1="25.091" y1="37.176" x2="25.091" y2="0" gradientUnits="userSpaceOnUse"><stop offset=".286" stop-color="#fff"/><stop offset="1" stop-color="#fff"/></linearGradient><clipPath id="clip0"><path fill="#fff" d="M0 0h49.778v37.176H0z"/></clipPath></defs></svg>